<mxfile host="app.diagrams.net" agent="Mozilla/5.0 (X11; Linux x86_64) AppleWebKit/537.36 (KHTML, like Gecko) Chrome/134.0.0.0 Safari/537.36" version="28.2.7">
  <diagram name="Page-1" id="gD_oswIPVhmendxxoWTu">
    <mxGraphModel dx="5705" dy="666" grid="1" gridSize="10" guides="1" tooltips="1" connect="1" arrows="1" fold="1" page="1" pageScale="1" pageWidth="4681" pageHeight="3300" math="0" shadow="0">
      <root>
        <mxCell id="0" />
        <mxCell id="1" parent="0" />
        <mxCell id="1KNnokjcpxOvImdohz6O-1" value="Declaration of import of pineapples by Fruiterer A on the 3rd of May 2025" style="swimlane;fontStyle=0;childLayout=stackLayout;horizontal=1;startSize=40;strokeColor=#DAEEF3;strokeWidth=3;fillColor=none;horizontalStack=0;resizeParent=1;resizeParentMax=0;resizeLast=0;collapsible=1;marginBottom=0;whiteSpace=wrap;html=1;" parent="1" vertex="1">
          <mxGeometry x="580" y="190" width="220" height="66" as="geometry" />
        </mxCell>
        <mxCell id="1KNnokjcpxOvImdohz6O-7" value="Record" style="text;strokeColor=#DAEEF3;strokeWidth=3;fillColor=none;align=center;verticalAlign=top;spacingLeft=4;spacingRight=4;overflow=hidden;rotatable=0;points=[[0,0.5],[1,0.5]];portConstraint=eastwest;whiteSpace=wrap;html=1;" parent="1KNnokjcpxOvImdohz6O-1" vertex="1">
          <mxGeometry y="40" width="220" height="26" as="geometry" />
        </mxCell>
        <mxCell id="1KNnokjcpxOvImdohz6O-3" value="Fruiterer A" style="swimlane;fontStyle=0;childLayout=stackLayout;horizontal=1;startSize=26;strokeColor=light-dark(#e5dfec, #27374c);strokeWidth=3;fillColor=none;horizontalStack=0;resizeParent=1;resizeParentMax=0;resizeLast=0;collapsible=1;marginBottom=0;whiteSpace=wrap;html=1;" parent="1" vertex="1">
          <mxGeometry x="-30" y="440" width="180" height="52" as="geometry" />
        </mxCell>
        <mxCell id="1KNnokjcpxOvImdohz6O-4" value="Agent" style="text;strokeColor=#E5DFEC;strokeWidth=3;fillColor=light-dark(#E5DFEC,#EDEDED);align=center;verticalAlign=top;spacingLeft=4;spacingRight=4;overflow=hidden;rotatable=0;points=[[0,0.5],[1,0.5]];portConstraint=eastwest;whiteSpace=wrap;html=1;" parent="1KNnokjcpxOvImdohz6O-3" vertex="1">
          <mxGeometry y="26" width="180" height="26" as="geometry" />
        </mxCell>
        <mxCell id="1KNnokjcpxOvImdohz6O-5" value="" style="endArrow=classic;html=1;rounded=0;entryX=1;entryY=0;entryDx=0;entryDy=0;exitX=0;exitY=0.5;exitDx=0;exitDy=0;" parent="1" source="1KNnokjcpxOvImdohz6O-1" target="1KNnokjcpxOvImdohz6O-3" edge="1">
          <mxGeometry relative="1" as="geometry">
            <mxPoint x="560" y="300" as="sourcePoint" />
            <mxPoint x="130" y="361" as="targetPoint" />
          </mxGeometry>
        </mxCell>
        <mxCell id="1KNnokjcpxOvImdohz6O-6" value="has creator" style="edgeLabel;resizable=0;html=1;;align=center;verticalAlign=middle;" parent="1KNnokjcpxOvImdohz6O-5" connectable="0" vertex="1">
          <mxGeometry relative="1" as="geometry" />
        </mxCell>
        <mxCell id="1KNnokjcpxOvImdohz6O-8" value="" style="endArrow=classic;html=1;rounded=0;exitX=1;exitY=0.25;exitDx=0;exitDy=0;entryX=0;entryY=0.5;entryDx=0;entryDy=0;" parent="1" source="1KNnokjcpxOvImdohz6O-1" target="1KNnokjcpxOvImdohz6O-10" edge="1">
          <mxGeometry relative="1" as="geometry">
            <mxPoint x="800" y="215.50000000000023" as="sourcePoint" />
            <mxPoint x="950" y="215.5" as="targetPoint" />
          </mxGeometry>
        </mxCell>
        <mxCell id="1KNnokjcpxOvImdohz6O-9" value="has creation date" style="edgeLabel;resizable=0;html=1;;align=center;verticalAlign=middle;" parent="1KNnokjcpxOvImdohz6O-8" connectable="0" vertex="1">
          <mxGeometry relative="1" as="geometry" />
        </mxCell>
        <mxCell id="1KNnokjcpxOvImdohz6O-10" value="April 20th, 2025" style="swimlane;fontStyle=0;childLayout=stackLayout;horizontal=1;startSize=26;strokeColor=#DDD9C3;strokeWidth=2;fillColor=none;horizontalStack=0;resizeParent=1;resizeParentMax=0;resizeLast=0;collapsible=1;marginBottom=0;whiteSpace=wrap;html=1;" parent="1" vertex="1">
          <mxGeometry x="995" y="70" width="140" height="52" as="geometry" />
        </mxCell>
        <mxCell id="1KNnokjcpxOvImdohz6O-11" value="Date" style="text;strokeColor=#DDD9C3;strokeWidth=2;fillColor=#DDD9C3;align=center;verticalAlign=top;spacingLeft=4;spacingRight=4;overflow=hidden;rotatable=0;points=[[0,0.5],[1,0.5]];portConstraint=eastwest;whiteSpace=wrap;html=1;" parent="1KNnokjcpxOvImdohz6O-10" vertex="1">
          <mxGeometry y="26" width="140" height="26" as="geometry" />
        </mxCell>
        <mxCell id="1KNnokjcpxOvImdohz6O-12" value="" style="endArrow=classic;html=1;rounded=0;exitX=1;exitY=0.75;exitDx=0;exitDy=0;entryX=0;entryY=0.5;entryDx=0;entryDy=0;" parent="1" source="1KNnokjcpxOvImdohz6O-10" target="1KNnokjcpxOvImdohz6O-14" edge="1">
          <mxGeometry relative="1" as="geometry">
            <mxPoint x="1155" y="95.5" as="sourcePoint" />
            <mxPoint x="1315" y="96" as="targetPoint" />
          </mxGeometry>
        </mxCell>
        <mxCell id="1KNnokjcpxOvImdohz6O-13" value="normalized date" style="edgeLabel;resizable=0;html=1;;align=center;verticalAlign=middle;" parent="1KNnokjcpxOvImdohz6O-12" connectable="0" vertex="1">
          <mxGeometry relative="1" as="geometry" />
        </mxCell>
        <mxCell id="1KNnokjcpxOvImdohz6O-14" value="2025-04-20" style="html=1;whiteSpace=wrap;rounded=1;arcSize=50;" parent="1" vertex="1">
          <mxGeometry x="1290" y="130" width="110" height="50" as="geometry" />
        </mxCell>
        <mxCell id="1KNnokjcpxOvImdohz6O-16" value="April 20th, 2025" style="html=1;whiteSpace=wrap;rounded=1;arcSize=50;" parent="1" vertex="1">
          <mxGeometry x="1290" width="110" height="50" as="geometry" />
        </mxCell>
        <mxCell id="1KNnokjcpxOvImdohz6O-17" value="" style="endArrow=classic;html=1;rounded=0;exitX=1;exitY=0.25;exitDx=0;exitDy=0;entryX=0;entryY=0.5;entryDx=0;entryDy=0;" parent="1" source="1KNnokjcpxOvImdohz6O-10" target="1KNnokjcpxOvImdohz6O-16" edge="1">
          <mxGeometry relative="1" as="geometry">
            <mxPoint x="1065.01" y="69.99800000000005" as="sourcePoint" />
            <mxPoint x="1065" y="11" as="targetPoint" />
          </mxGeometry>
        </mxCell>
        <mxCell id="1KNnokjcpxOvImdohz6O-18" value="expressed date" style="edgeLabel;resizable=0;html=1;;align=center;verticalAlign=middle;" parent="1KNnokjcpxOvImdohz6O-17" connectable="0" vertex="1">
          <mxGeometry relative="1" as="geometry" />
        </mxCell>
        <mxCell id="A35KRgC0kDwhK_vT6vw7-1" value="Import of pineapples, 3rd of May 2025" style="swimlane;fontStyle=0;childLayout=stackLayout;horizontal=1;startSize=26;strokeColor=#FFFAA0;strokeWidth=3;fillColor=none;horizontalStack=0;resizeParent=1;resizeParentMax=0;resizeLast=0;collapsible=1;marginBottom=0;whiteSpace=wrap;html=1;" parent="1" vertex="1">
          <mxGeometry x="360" y="440" width="240" height="52" as="geometry" />
        </mxCell>
        <mxCell id="A35KRgC0kDwhK_vT6vw7-2" value="Activity" style="text;strokeColor=#FFFAA0;strokeWidth=3;fillColor=#FFFFFF;align=center;verticalAlign=top;spacingLeft=4;spacingRight=4;overflow=hidden;rotatable=0;points=[[0,0.5],[1,0.5]];portConstraint=eastwest;whiteSpace=wrap;html=1;" parent="A35KRgC0kDwhK_vT6vw7-1" vertex="1">
          <mxGeometry y="26" width="240" height="26" as="geometry" />
        </mxCell>
        <mxCell id="A35KRgC0kDwhK_vT6vw7-3" value="" style="endArrow=classic;html=1;rounded=0;exitX=0.223;exitY=0.968;exitDx=0;exitDy=0;exitPerimeter=0;entryX=0.696;entryY=0.019;entryDx=0;entryDy=0;entryPerimeter=0;" parent="1" source="1KNnokjcpxOvImdohz6O-7" target="A35KRgC0kDwhK_vT6vw7-1" edge="1">
          <mxGeometry relative="1" as="geometry">
            <mxPoint x="450" y="480" as="sourcePoint" />
            <mxPoint x="280" y="480.0000000000002" as="targetPoint" />
          </mxGeometry>
        </mxCell>
        <mxCell id="A35KRgC0kDwhK_vT6vw7-4" value="results or resulted from" style="edgeLabel;resizable=0;html=1;;align=center;verticalAlign=middle;" parent="A35KRgC0kDwhK_vT6vw7-3" connectable="0" vertex="1">
          <mxGeometry relative="1" as="geometry">
            <mxPoint x="6" y="1" as="offset" />
          </mxGeometry>
        </mxCell>
        <mxCell id="A35KRgC0kDwhK_vT6vw7-5" value="" style="endArrow=classic;html=1;rounded=0;" parent="1" edge="1">
          <mxGeometry relative="1" as="geometry">
            <mxPoint x="150" y="465" as="sourcePoint" />
            <mxPoint x="360" y="465" as="targetPoint" />
          </mxGeometry>
        </mxCell>
        <mxCell id="A35KRgC0kDwhK_vT6vw7-6" value="performs or performed" style="edgeLabel;resizable=0;html=1;;align=center;verticalAlign=middle;" parent="A35KRgC0kDwhK_vT6vw7-5" connectable="0" vertex="1">
          <mxGeometry relative="1" as="geometry" />
        </mxCell>
        <mxCell id="Oi_SY7fMI8P8ZADdGXjG-1" value="" style="endArrow=classic;html=1;rounded=0;exitX=1.014;exitY=0.192;exitDx=0;exitDy=0;exitPerimeter=0;" parent="1" source="1KNnokjcpxOvImdohz6O-7" target="Oi_SY7fMI8P8ZADdGXjG-3" edge="1">
          <mxGeometry relative="1" as="geometry">
            <mxPoint x="270" y="200" as="sourcePoint" />
            <mxPoint x="350" y="160" as="targetPoint" />
          </mxGeometry>
        </mxCell>
        <mxCell id="Oi_SY7fMI8P8ZADdGXjG-2" value="has provenance" style="edgeLabel;resizable=0;html=1;;align=center;verticalAlign=middle;" parent="Oi_SY7fMI8P8ZADdGXjG-1" connectable="0" vertex="1">
          <mxGeometry relative="1" as="geometry" />
        </mxCell>
        <mxCell id="Oi_SY7fMI8P8ZADdGXjG-3" value="Customs Declaration Service" style="swimlane;fontStyle=0;childLayout=stackLayout;horizontal=1;startSize=26;strokeColor=#E5DFEC;strokeWidth=3;fillColor=none;horizontalStack=0;resizeParent=1;resizeParentMax=0;resizeLast=0;collapsible=1;marginBottom=0;whiteSpace=wrap;html=1;" parent="1" vertex="1">
          <mxGeometry x="1050" y="270" width="160" height="52" as="geometry" />
        </mxCell>
        <mxCell id="Oi_SY7fMI8P8ZADdGXjG-4" value="Mechanism" style="text;strokeColor=#E5DFEC;strokeWidth=3;fillColor=none;align=center;verticalAlign=top;spacingLeft=4;spacingRight=4;overflow=hidden;rotatable=0;points=[[0,0.5],[1,0.5]];portConstraint=eastwest;whiteSpace=wrap;html=1;" parent="Oi_SY7fMI8P8ZADdGXjG-3" vertex="1">
          <mxGeometry y="26" width="160" height="26" as="geometry" />
        </mxCell>
        <mxCell id="Oi_SY7fMI8P8ZADdGXjG-5" value="May 3rd, 2025" style="swimlane;fontStyle=0;childLayout=stackLayout;horizontal=1;startSize=26;strokeColor=#DDD9C3;strokeWidth=2;fillColor=none;horizontalStack=0;resizeParent=1;resizeParentMax=0;resizeLast=0;collapsible=1;marginBottom=0;whiteSpace=wrap;html=1;" parent="1" vertex="1">
          <mxGeometry x="440" y="610" width="100" height="52" as="geometry" />
        </mxCell>
        <mxCell id="Oi_SY7fMI8P8ZADdGXjG-6" value="Date" style="text;strokeColor=#DDD9C3;strokeWidth=2;fillColor=#DDD9C3;align=center;verticalAlign=top;spacingLeft=4;spacingRight=4;overflow=hidden;rotatable=0;points=[[0,0.5],[1,0.5]];portConstraint=eastwest;whiteSpace=wrap;html=1;" parent="Oi_SY7fMI8P8ZADdGXjG-5" vertex="1">
          <mxGeometry y="26" width="100" height="26" as="geometry" />
        </mxCell>
        <mxCell id="Oi_SY7fMI8P8ZADdGXjG-7" value="" style="endArrow=classic;html=1;rounded=0;exitX=0.517;exitY=1.071;exitDx=0;exitDy=0;entryX=0.444;entryY=-0.022;entryDx=0;entryDy=0;entryPerimeter=0;exitPerimeter=0;" parent="1" source="A35KRgC0kDwhK_vT6vw7-2" target="Oi_SY7fMI8P8ZADdGXjG-5" edge="1">
          <mxGeometry relative="1" as="geometry">
            <mxPoint x="500" y="550.0000000000002" as="sourcePoint" />
            <mxPoint x="660" y="550" as="targetPoint" />
          </mxGeometry>
        </mxCell>
        <mxCell id="Oi_SY7fMI8P8ZADdGXjG-8" value="occurred at date" style="edgeLabel;resizable=0;html=1;;align=center;verticalAlign=middle;" parent="Oi_SY7fMI8P8ZADdGXjG-7" connectable="0" vertex="1">
          <mxGeometry relative="1" as="geometry" />
        </mxCell>
        <mxCell id="Oi_SY7fMI8P8ZADdGXjG-11" value="" style="endArrow=classic;html=1;rounded=0;exitX=0.75;exitY=1;exitDx=0;exitDy=0;entryX=0.136;entryY=0.04;entryDx=0;entryDy=0;entryPerimeter=0;" parent="1" source="Oi_SY7fMI8P8ZADdGXjG-5" target="Oi_SY7fMI8P8ZADdGXjG-13" edge="1">
          <mxGeometry relative="1" as="geometry">
            <mxPoint x="520" y="680" as="sourcePoint" />
            <mxPoint x="670" y="740" as="targetPoint" />
          </mxGeometry>
        </mxCell>
        <mxCell id="Oi_SY7fMI8P8ZADdGXjG-12" value="normalized date" style="edgeLabel;resizable=0;html=1;;align=center;verticalAlign=middle;" parent="Oi_SY7fMI8P8ZADdGXjG-11" connectable="0" vertex="1">
          <mxGeometry relative="1" as="geometry" />
        </mxCell>
        <mxCell id="Oi_SY7fMI8P8ZADdGXjG-13" value="2025-05-03" style="html=1;whiteSpace=wrap;rounded=1;arcSize=50;" parent="1" vertex="1">
          <mxGeometry x="605" y="720" width="110" height="50" as="geometry" />
        </mxCell>
        <mxCell id="Oi_SY7fMI8P8ZADdGXjG-14" value="" style="endArrow=classic;html=1;rounded=0;exitX=0.15;exitY=0.962;exitDx=0;exitDy=0;exitPerimeter=0;entryX=0.5;entryY=0;entryDx=0;entryDy=0;" parent="1" source="Oi_SY7fMI8P8ZADdGXjG-6" target="Oi_SY7fMI8P8ZADdGXjG-16" edge="1">
          <mxGeometry relative="1" as="geometry">
            <mxPoint x="450" y="670" as="sourcePoint" />
            <mxPoint x="370" y="730" as="targetPoint" />
          </mxGeometry>
        </mxCell>
        <mxCell id="Oi_SY7fMI8P8ZADdGXjG-15" value="expressed date" style="edgeLabel;resizable=0;html=1;;align=center;verticalAlign=middle;" parent="Oi_SY7fMI8P8ZADdGXjG-14" connectable="0" vertex="1">
          <mxGeometry relative="1" as="geometry" />
        </mxCell>
        <mxCell id="Oi_SY7fMI8P8ZADdGXjG-16" value="May 3rd, 2025" style="html=1;whiteSpace=wrap;rounded=1;arcSize=50;" parent="1" vertex="1">
          <mxGeometry x="290" y="720" width="110" height="50" as="geometry" />
        </mxCell>
        <mxCell id="Oi_SY7fMI8P8ZADdGXjG-17" value="" style="endArrow=classic;html=1;rounded=0;exitX=1;exitY=0.5;exitDx=0;exitDy=0;" parent="1" source="A35KRgC0kDwhK_vT6vw7-1" target="Oi_SY7fMI8P8ZADdGXjG-19" edge="1">
          <mxGeometry relative="1" as="geometry">
            <mxPoint x="715" y="500" as="sourcePoint" />
            <mxPoint x="800" y="590" as="targetPoint" />
          </mxGeometry>
        </mxCell>
        <mxCell id="Oi_SY7fMI8P8ZADdGXjG-18" value="is or was subevent of" style="edgeLabel;resizable=0;html=1;;align=center;verticalAlign=middle;" parent="Oi_SY7fMI8P8ZADdGXjG-17" connectable="0" vertex="1">
          <mxGeometry relative="1" as="geometry" />
        </mxCell>
        <mxCell id="Oi_SY7fMI8P8ZADdGXjG-19" value="Importing of goods to the UK" style="swimlane;fontStyle=0;childLayout=stackLayout;horizontal=1;startSize=36;strokeColor=#FFFAA0;strokeWidth=3;fillColor=none;horizontalStack=0;resizeParent=1;resizeParentMax=0;resizeLast=0;collapsible=1;marginBottom=0;whiteSpace=wrap;html=1;" parent="1" vertex="1">
          <mxGeometry x="780" y="606" width="160.5" height="62" as="geometry" />
        </mxCell>
        <mxCell id="Oi_SY7fMI8P8ZADdGXjG-20" value="Activity" style="text;strokeColor=#FFFAA0;strokeWidth=3;fillColor=none;align=center;verticalAlign=top;spacingLeft=4;spacingRight=4;overflow=hidden;rotatable=0;points=[[0,0.5],[1,0.5]];portConstraint=eastwest;whiteSpace=wrap;html=1;" parent="Oi_SY7fMI8P8ZADdGXjG-19" vertex="1">
          <mxGeometry y="36" width="160.5" height="26" as="geometry" />
        </mxCell>
        <mxCell id="Oi_SY7fMI8P8ZADdGXjG-26" value="Import declaration" style="swimlane;fontStyle=0;childLayout=stackLayout;horizontal=1;startSize=26;fillColor=none;horizontalStack=0;resizeParent=1;resizeParentMax=0;resizeLast=0;collapsible=1;marginBottom=0;whiteSpace=wrap;html=1;" parent="1" vertex="1">
          <mxGeometry x="771" y="388" width="189" height="52" as="geometry">
            <mxRectangle x="981" y="570" width="50" height="40" as="alternateBounds" />
          </mxGeometry>
        </mxCell>
        <mxCell id="Oi_SY7fMI8P8ZADdGXjG-27" value="Documentary Form Type&lt;div&gt;&lt;br&gt;&lt;/div&gt;" style="text;strokeColor=none;fillColor=none;align=center;verticalAlign=top;spacingLeft=4;spacingRight=4;overflow=hidden;rotatable=0;points=[[0,0.5],[1,0.5]];portConstraint=eastwest;whiteSpace=wrap;html=1;" parent="Oi_SY7fMI8P8ZADdGXjG-26" vertex="1">
          <mxGeometry y="26" width="189" height="26" as="geometry" />
        </mxCell>
        <mxCell id="Oi_SY7fMI8P8ZADdGXjG-29" value="" style="endArrow=classic;html=1;rounded=0;exitX=0.645;exitY=1.104;exitDx=0;exitDy=0;exitPerimeter=0;entryX=0.334;entryY=-0.007;entryDx=0;entryDy=0;entryPerimeter=0;" parent="1" source="1KNnokjcpxOvImdohz6O-7" target="Oi_SY7fMI8P8ZADdGXjG-26" edge="1">
          <mxGeometry relative="1" as="geometry">
            <mxPoint x="520" y="400" as="sourcePoint" />
            <mxPoint x="750" y="400" as="targetPoint" />
          </mxGeometry>
        </mxCell>
        <mxCell id="Oi_SY7fMI8P8ZADdGXjG-30" value="has documentary form type" style="edgeLabel;resizable=0;html=1;;align=center;verticalAlign=middle;" parent="Oi_SY7fMI8P8ZADdGXjG-29" connectable="0" vertex="1">
          <mxGeometry relative="1" as="geometry" />
        </mxCell>
        <mxCell id="Oi_SY7fMI8P8ZADdGXjG-31" value="HM Revenue &amp;amp; Customs" style="swimlane;fontStyle=0;childLayout=stackLayout;horizontal=1;startSize=26;strokeColor=#C6D9F1;strokeWidth=3;fillColor=none;horizontalStack=0;resizeParent=1;resizeParentMax=0;resizeLast=0;collapsible=1;marginBottom=0;whiteSpace=wrap;html=1;" parent="1" vertex="1">
          <mxGeometry x="1130" y="453" width="170" height="52" as="geometry" />
        </mxCell>
        <mxCell id="Oi_SY7fMI8P8ZADdGXjG-32" value="Corporate Body" style="text;strokeColor=#C6D9F1;strokeWidth=3;fillColor=none;align=center;verticalAlign=top;spacingLeft=4;spacingRight=4;overflow=hidden;rotatable=0;points=[[0,0.5],[1,0.5]];portConstraint=eastwest;whiteSpace=wrap;html=1;" parent="Oi_SY7fMI8P8ZADdGXjG-31" vertex="1">
          <mxGeometry y="26" width="170" height="26" as="geometry" />
        </mxCell>
        <mxCell id="Oi_SY7fMI8P8ZADdGXjG-33" value="" style="endArrow=classic;html=1;rounded=0;exitX=0.524;exitY=1.041;exitDx=0;exitDy=0;exitPerimeter=0;entryX=0;entryY=0;entryDx=0;entryDy=0;" parent="1" source="Oi_SY7fMI8P8ZADdGXjG-27" target="Oi_SY7fMI8P8ZADdGXjG-46" edge="1">
          <mxGeometry relative="1" as="geometry">
            <mxPoint x="890" y="470" as="sourcePoint" />
            <mxPoint x="1070" y="505.40999999999997" as="targetPoint" />
          </mxGeometry>
        </mxCell>
        <mxCell id="Oi_SY7fMI8P8ZADdGXjG-34" value="is or was regulated by" style="edgeLabel;resizable=0;html=1;;align=center;verticalAlign=middle;" parent="Oi_SY7fMI8P8ZADdGXjG-33" connectable="0" vertex="1">
          <mxGeometry relative="1" as="geometry" />
        </mxCell>
        <mxCell id="Oi_SY7fMI8P8ZADdGXjG-35" value="" style="endArrow=classic;html=1;rounded=0;exitX=1;exitY=0.5;exitDx=0;exitDy=0;entryX=0;entryY=0.5;entryDx=0;entryDy=0;" parent="1" source="Oi_SY7fMI8P8ZADdGXjG-19" target="Oi_SY7fMI8P8ZADdGXjG-46" edge="1">
          <mxGeometry relative="1" as="geometry">
            <mxPoint x="1117" y="708" as="sourcePoint" />
            <mxPoint x="860" y="640" as="targetPoint" />
          </mxGeometry>
        </mxCell>
        <mxCell id="Oi_SY7fMI8P8ZADdGXjG-36" value="is or was regulated by" style="edgeLabel;resizable=0;html=1;;align=center;verticalAlign=middle;" parent="Oi_SY7fMI8P8ZADdGXjG-35" connectable="0" vertex="1">
          <mxGeometry relative="1" as="geometry" />
        </mxCell>
        <mxCell id="Oi_SY7fMI8P8ZADdGXjG-37" value="" style="endArrow=classic;html=1;rounded=0;entryX=0.501;entryY=1.1;entryDx=0;entryDy=0;entryPerimeter=0;exitX=0.5;exitY=0;exitDx=0;exitDy=0;" parent="1" source="Oi_SY7fMI8P8ZADdGXjG-31" target="Oi_SY7fMI8P8ZADdGXjG-4" edge="1">
          <mxGeometry relative="1" as="geometry">
            <mxPoint x="1050" y="413.41" as="sourcePoint" />
            <mxPoint x="1230" y="413.41" as="targetPoint" />
          </mxGeometry>
        </mxCell>
        <mxCell id="Oi_SY7fMI8P8ZADdGXjG-38" value="is or was controller of" style="edgeLabel;resizable=0;html=1;;align=center;verticalAlign=middle;" parent="Oi_SY7fMI8P8ZADdGXjG-37" connectable="0" vertex="1">
          <mxGeometry relative="1" as="geometry" />
        </mxCell>
        <mxCell id="Oi_SY7fMI8P8ZADdGXjG-44" value="" style="endArrow=classic;html=1;rounded=0;exitX=0.5;exitY=0;exitDx=0;exitDy=0;entryX=0.506;entryY=1.038;entryDx=0;entryDy=0;entryPerimeter=0;" parent="1" source="Oi_SY7fMI8P8ZADdGXjG-46" target="Oi_SY7fMI8P8ZADdGXjG-32" edge="1">
          <mxGeometry relative="1" as="geometry">
            <mxPoint x="1215" y="590" as="sourcePoint" />
            <mxPoint x="960" y="530" as="targetPoint" />
          </mxGeometry>
        </mxCell>
        <mxCell id="Oi_SY7fMI8P8ZADdGXjG-45" value="is or was enforced by" style="edgeLabel;resizable=0;html=1;;align=center;verticalAlign=middle;" parent="Oi_SY7fMI8P8ZADdGXjG-44" connectable="0" vertex="1">
          <mxGeometry relative="1" as="geometry" />
        </mxCell>
        <mxCell id="Oi_SY7fMI8P8ZADdGXjG-46" value="UK customs law" style="swimlane;fontStyle=0;childLayout=stackLayout;horizontal=1;startSize=26;strokeColor=#EAF1DD;strokeWidth=2;fillColor=none;horizontalStack=0;resizeParent=1;resizeParentMax=0;resizeLast=0;collapsible=1;marginBottom=0;whiteSpace=wrap;html=1;" parent="1" vertex="1">
          <mxGeometry x="1160" y="611" width="110" height="52" as="geometry" />
        </mxCell>
        <mxCell id="Oi_SY7fMI8P8ZADdGXjG-47" value="Rule&lt;div&gt;&lt;br&gt;&lt;/div&gt;" style="text;strokeColor=#EAF1DD;strokeWidth=2;fillColor=#EAF1DD;align=center;verticalAlign=top;spacingLeft=4;spacingRight=4;overflow=hidden;rotatable=0;points=[[0,0.5],[1,0.5]];portConstraint=eastwest;whiteSpace=wrap;html=1;" parent="Oi_SY7fMI8P8ZADdGXjG-46" vertex="1">
          <mxGeometry y="26" width="110" height="26" as="geometry" />
        </mxCell>
      </root>
    </mxGraphModel>
  </diagram>
</mxfile>
